<?xml version="1.0" encoding="UTF-8"?>
<svg xmlns="http://www.w3.org/2000/svg" version="1.1" viewBox="0 0 425.2 425.2">
  <defs>
    <style>
      .cls-1 {
        stroke-width: .1px;
      }

      .cls-1, .cls-2 {
        fill: none;
      }

      .cls-1, .cls-2, .cls-3 {
        stroke: #000;
        stroke-miterlimit: 10;
      }

      .cls-2 {
        stroke-width: 2px;
      }
    </style>
  </defs>
  <!-- Generator: Adobe Illustrator 28.7.1, SVG Export Plug-In . SVG Version: 1.2.0 Build 142)  -->
  <g>
    <g id="Layer_1">
      <g>
        <path class="cls-2" d="M285.23,167.1c3.55,16.81,15.72,31.58,31.96,40.3,5.16,2.78,10.73,4.94,16.52,6.41"/>
        <path class="cls-2" d="M333.95,213.75c-17.91,3.87-33.89,14.15-43.03,28.63-3.1,4.91-5.42,10.22-6.95,15.69"/>
        <path class="cls-2" d="M284.09,257.98c-4.82-21.33-16.7-34.86-47.55-41.1"/>
        <path d="M274.95,187.65c4.55-6.1,7.65-13.18,9.4-20.5l1.93.51c-2.19,7.46-5.76,14.54-10.69,20.49l-.64-.5h0Z"/>
        <path d="M235.46,209.6c8.78-1.73,17.37-4.69,25.09-9.31l.51.82c-7.65,4.98-16.3,8.34-25.18,10.44l-.42-1.95h0Z"/>
        <path d="M372.3,213.7l21.69.04c-.04-.12-21.94.34-21.69-.04h0Z"/>
        <polygon points="333.71 212.82 365.56 213.78 333.71 214.82 333.71 212.82 333.71 212.82"/>
        <polygon points="284.97 257.64 284.2 282.86 282.97 257.66 284.97 257.64 284.97 257.64"/>
        <polygon points="284.32 168.03 285 142.85 286.32 168.01 284.32 168.03 284.32 168.03"/>
        <path d="M235.84,211.56c-5.19.8-10.42,1.49-15.66,1.82-12.56.67-25.24.66-37.81.55,0,0,0-.48,0-.48,11.71-.22,23.51-.57,35.19-1.41,1.1-.08,4.24-.36,4.98-.45,4.34-.53,8.66-1.2,12.96-2l.34,1.97h0Z"/>
        <path d="M236.37,217.87c-5.16-.92-10.46-1.74-15.44-2.17-12.51-.97-25.15-1.26-37.69-1.45,0,0,0-.98,0-.98,13.42-.02,26.96-.04,40.35.93,4.39.43,8.76,1,13.11,1.71,0,0-.34,1.97-.34,1.97h0Z"/>
        <polygon points="184.87 214.25 149.05 214 149.05 213.49 184.87 213.27 184.87 214.25 184.87 214.25"/>
        <path d="M213.3,203.18"/>
        <path d="M149.06,214l-99.83-.2c.1.32,100.7-1.12,99.83.2h0Z"/>
        <path d="M246.3,214.46"/>
        <path d="M104.86,226.13c0,1.56-.03,2.79-.09,3.71-.06.92-.24,1.66-.56,2.2-.32.55-.84.95-1.56,1.21-.72.26-1.71.48-2.98.65-.34.06-.6.22-.78.48s-.26.56-.26.91c0,.29.09.56.26.82s.4.39.69.39c1.15,0,2.58-.1,4.28-.3,1.7-.2,3.47-.3,5.31-.3,1.73,0,3.4.1,5.01.3,1.61.2,2.79.3,3.54.3.35,0,.6-.13.78-.39.17-.26.26-.53.26-.82,0-.35-.09-.65-.26-.91-.17-.26-.43-.42-.78-.48-1.21-.17-2.13-.39-2.76-.65-.63-.26-1.09-.68-1.38-1.25-.29-.58-.46-1.37-.52-2.38-.06-1.01-.09-2.34-.09-4.02v-8.73h-8.12v9.25Z"/>
        <path d="M77.75,226.13c0,1.32-.03,2.43-.09,3.33-.06.89-.26,1.64-.6,2.25-.35.6-.91,1.08-1.69,1.43-.78.35-1.89.6-3.32.78-.35.06-.6.22-.78.48-.17.26-.26.56-.26.91,0,.29.09.56.26.82.17.26.4.39.69.39,1.44,0,3.02-.1,4.75-.3,1.73-.2,3.51-.3,5.35-.3,1.73,0,3.44.1,5.14.3,1.7.2,3.12.3,4.28.3.35,0,.6-.13.78-.39.17-.26.26-.53.26-.82,0-.35-.09-.65-.26-.91-.17-.26-.43-.42-.78-.48-1.38-.17-2.46-.43-3.24-.78-.78-.35-1.34-.83-1.69-1.47-.34-.63-.55-1.44-.6-2.42-.06-.98-.09-2.19-.09-3.63v-8.73h-8.12v9.25Z"/>
        <path d="M144.85,233.9c-1.21-.17-2.13-.43-2.76-.78-.63-.35-1.09-.83-1.38-1.47-.29-.63-.46-1.44-.52-2.42-.06-.98-.09-2.19-.09-3.63v-8.73h-8.12v9.25c0,1.32-.03,2.43-.09,3.33-.06.89-.26,1.64-.6,2.25s-.88,1.08-1.6,1.43c-.72.35-1.77.6-3.15.78-.35.06-.6.22-.78.48-.17.26-.26.56-.26.91,0,.29.09.56.26.82.17.26.4.39.69.39,1.32,0,2.84-.1,4.54-.3,1.7-.2,3.47-.3,5.31-.3,1.73,0,3.4.1,5.01.3,1.61.2,2.79.3,3.54.3.34,0,.6-.13.78-.39.17-.26.26-.53.26-.82,0-.35-.09-.65-.26-.91-.17-.26-.43-.42-.78-.48Z"/>
        <path d="M139.84,205.57c0-2.3-.17-4.45-.52-6.43-.35-1.99-1.01-3.7-1.99-5.14-.98-1.44-2.33-2.58-4.06-3.41-1.73-.83-3.97-1.25-6.74-1.25-1.9,0-3.66.32-5.27.95-1.61.63-3.05,1.4-4.32,2.29-1.27.89-2.3,1.81-3.11,2.76-.81.95-1.35,1.74-1.64,2.37-1.15-2.76-2.76-4.85-4.84-6.26-2.07-1.41-4.89-2.12-8.46-2.12-1.96,0-3.7.3-5.22.91-1.53.6-2.82,1.31-3.89,2.12-1.07.81-1.93,1.61-2.59,2.42-.66.81-1.14,1.41-1.43,1.81-.23.23-.34.2-.34-.09l.17-4.23c.06-.63-.12-1.18-.52-1.64-.4-.46-.89-.69-1.47-.69-.12,0-.35.01-.69.04-.34.03-.58.07-.69.13-2.19.58-4.22,1.04-6.09,1.38-1.87.35-3.3.58-4.28.69-.35,0-.59.13-.73.39-.14.26-.19.53-.13.82.06.29.17.55.35.78.17.23.4.35.69.35,1.38.06,2.43.25,3.15.56.72.32,1.25.91,1.6,1.77.34.86.55,2.1.6,3.71.06,1.61.09,3.77.09,6.48v3.54h8.12v-4.14c0-1.38.22-2.78.65-4.19.43-1.41,1.09-2.69,1.99-3.84s2.04-2.09,3.45-2.81c1.41-.72,3.09-1.08,5.05-1.08,1.84,0,3.28.45,4.32,1.34,1.04.89,1.81,2.03,2.33,3.41s.85,2.91.99,4.58c.14,1.67.21,3.28.21,4.84v1.9h8.12v-4.4c0-1.27.3-2.58.91-3.93.6-1.35,1.43-2.6,2.46-3.76,1.04-1.15,2.26-2.1,3.67-2.85,1.41-.75,2.92-1.12,4.53-1.12,1.78,0,3.17.45,4.14,1.34.98.89,1.71,2.03,2.2,3.41.49,1.38.79,2.91.91,4.58.11,1.67.17,3.28.17,4.84v1.9h8.12v-5Z"/>
        <path d="M188.77,231.05c-.2-.11-.39-.11-.56,0-.75.46-1.32.76-1.73.91-.4.14-.92.22-1.56.22-1.09,0-1.83-.4-2.2-1.21-.38-.81-.56-2.22-.56-4.23v-9.85h-8.33c.05.04.1.07.13.13.06.14.09.53.09,1.17v9.41c0,.46-.23.92-.69,1.38-1.15.98-2.46,1.73-3.93,2.25-1.47.52-2.86.78-4.19.78-2.02,0-3.45-.59-4.32-1.77-.86-1.18-1.3-2.63-1.3-4.36,0-2.47,1.14-4.5,3.41-6.09,2.14-1.49,5.39-2.45,9.71-2.9h-15.11c-.26.13-.53.25-.77.39-3.86,2.22-5.79,5.4-5.79,9.54,0,3.23.89,5.71,2.68,7.47,1.78,1.76,4.32,2.63,7.6,2.63,2.99,0,5.49-.43,7.47-1.3,1.99-.86,3.73-1.96,5.23-3.28.23-.23.4-.2.52.09.57,1.21,1.45,2.26,2.63,3.15,1.18.89,2.6,1.34,4.28,1.34,3.05,0,5.7-1.35,7.95-4.06.17-.17.23-.39.17-.65-.06-.26-.16-.49-.3-.69-.14-.2-.32-.36-.52-.48Z"/>
        <path d="M173.57,210.15c.13,0,.23.03.31.08h8.33v-7.42c0-4.95-1.32-8.49-3.97-10.62-2.65-2.13-6.28-3.2-10.88-3.2-2.02,0-3.94.27-5.79.82-1.84.55-3.45,1.28-4.84,2.2-1.38.92-2.48,2.03-3.28,3.33-.81,1.3-1.21,2.66-1.21,4.1,0,1.21.33,2.23.99,3.07.66.84,1.77,1.25,3.32,1.25,1.15,0,2.13-.37,2.94-1.12.81-.75,1.21-1.53,1.21-2.33,0-.63-.2-1.25-.6-1.86-.4-.6-.6-1.22-.6-1.86,0-1.32.66-2.4,1.99-3.24,1.32-.83,3.05-1.25,5.18-1.25,1.44,0,2.65.27,3.63.82.98.55,1.74,1.29,2.29,2.24.55.95.93,2.06,1.16,3.33.23,1.27.35,2.62.35,4.06v2.33c0,1.04-.03,1.7-.09,1.99-.06.29-.15.43-.26.43-6.91,0-12.25.99-16.07,2.93h15.11c.26-.03.51-.06.78-.08Z"/>
        <path d="M233.98,238.95c-1.21-1.76-2.95-3.12-5.22-4.1-2.28-.98-5.05-1.68-8.33-2.12-3.28-.43-7-.79-11.14-1.08-.52,0-1.19-.04-2.03-.13-.83-.09-1.67-.23-2.5-.43-.84-.2-1.54-.48-2.12-.82-.58-.35-.86-.78-.86-1.3,0-.69.36-1.22,1.08-1.6.72-.37,1.6-.65,2.63-.82,1.04-.17,2.1-.29,3.2-.35,1.09-.06,1.99-.09,2.68-.09,2.42,0,4.69-.35,6.82-1.04,2.13-.69,4.01-1.7,5.66-3.02,1.2-.97,2.2-2.12,3.03-3.42-.45-.11-.89-.26-1.34-.4-.78-.25-1.59-.39-2.4-.46-.87-.08-1.77-.08-2.64.02-.51.06-1.02.15-1.53.24-.25.72-.54,1.39-.91,1.95-1.29,1.96-3.44,2.94-6.43,2.94-2.53,0-4.46-.98-5.79-2.94-.58-.85-1-1.91-1.33-3.11h-8.8c.39.97.86,1.87,1.49,2.64,1.67,2.04,3.97,3.64,6.91,4.79.06,0,.09.03.09.09s-.03.09-.09.09c-1.21.06-2.43.22-3.67.48-1.24.26-2.36.68-3.37,1.25-1.01.58-1.81,1.33-2.42,2.25-.6.92-.91,2.04-.91,3.37,0,1.84.55,3.18,1.64,4.02,1.09.83,2.3,1.48,3.63,1.94-.92.46-1.81,1.05-2.68,1.77-.86.72-1.64,1.54-2.33,2.46-.69.92-1.24,1.97-1.64,3.15-.4,1.18-.6,2.49-.6,3.93,0,2.47.5,4.61,1.51,6.39,1.01,1.78,2.45,3.25,4.32,4.41,1.87,1.15,4.1,2,6.69,2.55,2.59.55,5.44.82,8.55.82,3.74,0,7.04-.45,9.89-1.34,2.85-.89,5.25-2.12,7.21-3.67,1.96-1.55,3.42-3.4,4.41-5.53.98-2.13,1.47-4.43,1.47-6.91,0-2.82-.6-5.11-1.82-6.87ZM227.33,252.73c-.69,1.32-1.61,2.47-2.76,3.45-1.15.98-2.49,1.76-4.02,2.33-1.53.57-3.15.86-4.88.86-1.96,0-3.87-.26-5.74-.78-1.87-.52-3.53-1.31-4.97-2.37-1.44-1.07-2.61-2.39-3.5-3.97-.89-1.58-1.34-3.44-1.34-5.57,0-1.5.29-2.99.86-4.49.58-1.5,1.35-2.65,2.33-3.46,3.51.11,6.79.32,9.85.61,3.05.29,5.7.78,7.95,1.47,2.25.69,4.01,1.64,5.31,2.85,1.29,1.21,1.94,2.79,1.94,4.75,0,1.56-.35,2.99-1.04,4.32Z"/>
        <path d="M239.81,191.84c-.43-.52-.98-.94-1.64-1.25-.66-.32-1.38-.53-2.16-.65-.78-.11-1.48-.17-2.12-.17-1.84,0-3.51.38-5.01,1.12-1.5.75-2.79,1.67-3.89,2.76-1.5-1.38-3.15-2.5-4.97-3.37-1.82-.86-4.25-1.29-7.3-1.29-2.71,0-5.18.38-7.43,1.12-2.25.75-4.16,1.8-5.74,3.15-1.58,1.35-2.81,2.99-3.67,4.92-.86,1.93-1.3,4.07-1.3,6.43,0,2.15.36,4,1.01,5.61h8.8c-.42-1.56-.66-3.38-.66-5.52,0-1.44.12-2.91.35-4.4.23-1.5.66-2.85,1.29-4.06.63-1.21,1.51-2.2,2.63-2.98,1.12-.78,2.61-1.17,4.45-1.17,1.5,0,2.72.3,3.67.91.95.6,1.71,1.47,2.29,2.59.57,1.12.96,2.46,1.17,4.02.2,1.55.3,3.28.3,5.18,0,2.11-.23,3.9-.64,5.44h4.46c1.7-.07,3.23-.83,4.67-1.73.43-1.42.66-2.96.66-4.65-.06-1.38-.27-2.75-.65-4.1-.37-1.35-.96-2.63-1.77-3.84.46-.75,1.15-1.35,2.07-1.81.92-.46,1.84-.69,2.76-.69.86,0,1.41.23,1.64.69.23.46.43.95.6,1.47.17.52.43,1.01.78,1.47.34.46,1.06.69,2.16.69,1.5,0,2.51-.39,3.02-1.17.52-.78.78-1.65.78-2.63,0-.86-.22-1.55-.65-2.07Z"/>
        <path d="M350.56,209.49c-1.53-.66-3.44-1.05-5.74-1.17-.17,0-.29-.09-.35-.26-.06-.17.03-.35.26-.52.69-.52,1.51-1.18,2.46-1.99.95-.81,1.93-1.65,2.94-2.55,1.01-.89,1.94-1.74,2.81-2.55.86-.81,1.56-1.44,2.07-1.9.8-.75,1.5-1.4,2.07-1.94.57-.55,1.18-1.02,1.82-1.43.63-.4,1.32-.72,2.07-.95.75-.23,1.7-.4,2.85-.52.29-.06.5-.22.65-.48.14-.26.22-.53.22-.82,0-.35-.09-.65-.26-.91-.17-.26-.37-.39-.6-.39-1.32,0-2.68.1-4.06.3-1.38.2-2.74.3-4.06.3-.69,0-1.29-.03-1.81-.09-.52-.06-1.05-.13-1.6-.22s-1.15-.16-1.81-.22c-.66-.06-1.45-.09-2.37-.09-.29,0-.52.13-.69.39-.17.26-.26.56-.26.91,0,.29.09.58.26.86.17.29.4.43.69.43,1.84.12,2.83.5,2.98,1.17.14.66-.36,1.74-1.51,3.24-.52.63-1.12,1.38-1.81,2.24s-1.44,1.76-2.25,2.68c-.81.92-1.7,1.81-2.68,2.68s-2.02,1.64-3.11,2.33v-36.79c-.06-.35-.22-.68-.48-.99-.26-.32-.79-.36-1.6-.13-2.13.63-4.45,1.07-6.95,1.3-2.5.23-4.79.4-6.86.52-.35,0-.59.14-.73.43-.14.29-.2.58-.17.86.03.29.11.58.26.86.14.29.36.43.65.43,1.84.17,3.28.4,4.32.69,1.04.29,1.82.84,2.33,1.64.52.81.83,1.94.95,3.41.11,1.47.17,3.44.17,5.92v24.7h21.44c-.75-.53-1.55-1.02-2.48-1.42Z"/>
        <path d="M369.44,234.12c-.63-.06-1.25-.17-1.86-.35-.6-.17-1.11-.4-1.51-.69-1.38-1.09-2.52-2.29-3.41-3.58-.89-1.29-1.7-2.62-2.42-3.97-.72-1.35-1.44-2.66-2.16-3.93-.72-1.27-1.6-2.4-2.63-3.41-.41-.4-.88-.74-1.36-1.08h-21.44v9.25c0,1.32-.03,2.43-.09,3.33-.06.89-.29,1.64-.69,2.25-.4.6-1.05,1.08-1.94,1.43-.89.35-2.15.6-3.76.78-.35.06-.6.22-.78.48-.17.26-.26.56-.26.91,0,.29.09.56.26.82.17.26.4.39.69.39,1.84,0,3.65-.1,5.44-.3,1.78-.2,3.6-.3,5.44-.3,1.73,0,3.25.1,4.58.3,1.32.2,2.79.3,4.41.3.34,0,.6-.13.78-.39.17-.26.26-.53.26-.82s-.09-.57-.26-.86c-.17-.29-.43-.46-.78-.52-1.32-.23-2.33-.55-3.02-.95-.69-.4-1.2-.95-1.51-1.64-.32-.69-.5-1.58-.56-2.68-.06-1.09-.09-2.47-.09-4.15v-6.74c1.56,0,3.12.46,4.71,1.38,1.58.92,3.06,2.19,4.45,3.8,1.38,1.61,2.6,3.47,3.67,5.57,1.06,2.1,1.83,4.36,2.29,6.78.06.23.17.49.35.78s.46.43.86.43c.98,0,2.03-.04,3.15-.13s2.26-.13,3.41-.13c1.04,0,2.03.03,2.98.09.95.06,1.89.11,2.81.17.35,0,.6-.13.78-.39.17-.26.26-.53.26-.82,0-.35-.09-.66-.26-.95-.17-.29-.43-.43-.78-.43Z"/>
        <line class="cls-1" x1="169.66" y1="216.97" x2="175.58" y2="216.97"/>
        <circle class="cls-3" cx="41.65" cy="213.84" r="1.37"/>
        <circle class="cls-3" cx="265.32" cy="197.38" r="1.37"/>
        <circle class="cls-3" cx="271.02" cy="191.83" r="1.37"/>
        <circle class="cls-3" cx="32.74" cy="213.84" r="1.37"/>
        <circle class="cls-3" cx="368.93" cy="213.74" r="1.37"/>
      </g>
    </g>
  </g>
</svg>