<?xml version="1.0" encoding="UTF-8"?>
<svg id="Layer_2" data-name="Layer 2" xmlns="http://www.w3.org/2000/svg" viewBox="0 0 425.2 425.2">
  <defs>
    <style>
      .cls-1, .cls-2, .cls-3 {
        fill: #fff;
      }

      .cls-2, .cls-3, .cls-4 {
        stroke: #fff;
        stroke-miterlimit: 10;
      }

      .cls-3 {
        stroke-width: .1px;
      }

      .cls-4 {
        fill: none;
        stroke-width: 2px;
      }
    </style>
  </defs>
  <path class="cls-4" d="M291.14,163.07c3.84,18.2,17.02,34.18,34.59,43.63,5.59,3.01,11.62,5.35,17.89,6.94"/>
  <path class="cls-4" d="M343.88,213.57c-19.38,4.19-36.69,15.32-46.58,31-3.35,5.32-5.86,11.06-7.52,16.98"/>
  <path class="cls-4" d="M289.9,261.45c-5.21-23.09-18.07-37.73-51.48-44.49"/>
  <g>
    <path class="cls-1" d="M280.36,185.59c5.13-6.51,8.75-14.2,10.87-22.19"/>
    <path class="cls-1" d="M280.04,185.34c4.94-6.6,8.32-14.26,10.23-22.2l1.93.51c-2.36,8.07-6.19,15.73-11.52,22.18l-.64-.5h0Z"/>
  </g>
  <g>
    <path class="cls-1" d="M237.49,210.13c9.56-2.07,18.89-5.5,27.21-10.69"/>
    <path class="cls-1" d="M237.28,209.15c9.5-1.89,18.81-5.11,27.17-10.12l.51.82c-8.29,5.37-17.64,8.99-27.26,11.25l-.42-1.95h0Z"/>
  </g>
  <g>
    <path class="cls-1" d="M385.39,213.59c7.82,0,15.65-.02,23.47-.03"/>
    <path class="cls-1" d="M385.39,213.52l23.47.04c-.04-.12-23.72.34-23.47-.04h0Z"/>
  </g>
  <g>
    <path class="cls-1" d="M343.62,213.64c11.49-.01,22.98-.03,34.47-.04"/>
    <polygon class="cls-1" points="343.62 212.64 378.09 213.6 343.62 214.64 343.62 212.64 343.62 212.64"/>
  </g>
  <g>
    <line class="cls-1" x1="289.78" y1="261.09" x2="290.03" y2="288.38"/>
    <polygon class="cls-1" points="290.78 261.08 290.03 288.38 288.78 261.1 290.78 261.08 290.78 261.08"/>
  </g>
  <g>
    <line class="cls-1" x1="291.23" y1="164.07" x2="290.89" y2="136.82"/>
    <polygon class="cls-1" points="290.23 164.08 290.89 136.82 292.23 164.05 290.23 164.08 290.23 164.08"/>
  </g>
  <path class="cls-1" d="M237.66,211.11c-5.62.87-11.27,1.62-16.94,1.99-13.6.74-27.32.74-40.92.63,0,0,0-.48,0-.48,12.68-.22,25.45-.59,38.1-1.49,1.21-.09,4.55-.38,5.39-.48,4.7-.57,9.38-1.29,14.03-2.15l.34,1.97h0Z"/>
  <path class="cls-1" d="M238.26,217.95c-5.59-.99-11.31-1.87-16.72-2.34-13.55-1.04-27.22-1.34-40.8-1.54,0,0,0-.98,0-.98,14.52-.02,29.18-.03,43.67,1.03,4.75.47,9.48,1.09,14.19,1.86l-.34,1.97h0Z"/>
  <g>
    <line class="cls-1" x1="182.5" y1="213.58" x2="143.73" y2="213.57"/>
    <polygon class="cls-1" points="182.5 214.07 143.73 213.82 143.73 213.31 182.5 213.09 182.5 214.07 182.5 214.07"/>
  </g>
  <g>
    <line class="cls-1" x1="143.73" y1="213.57" x2="35.67" y2="213.6"/>
    <path class="cls-1" d="M143.73,213.82s-108.14-.13-108.06-.24c.14.43,108.97-1.13,108.06.24h0Z"/>
  </g>
  <path class="cls-2" d="M95.89,226.97c0,1.68-.03,3.02-.09,4.02-.06,1-.26,1.79-.61,2.38-.34.59-.91,1.03-1.68,1.31-.78.28-1.85.51-3.23.7-.37.06-.65.23-.84.51s-.28.61-.28.98c0,.31.09.61.28.89s.44.42.75.42c1.25,0,2.79-.11,4.63-.33,1.84-.22,3.75-.33,5.75-.33,1.87,0,3.68.11,5.42.33,1.74.22,3.02.33,3.83.33.37,0,.65-.14.84-.42.19-.28.28-.58.28-.89,0-.37-.09-.7-.28-.98-.19-.28-.47-.45-.84-.51-1.31-.19-2.31-.42-2.99-.7-.69-.28-1.18-.73-1.5-1.36-.31-.62-.5-1.48-.56-2.57-.06-1.09-.09-2.54-.09-4.35v-9.45h-8.79v10.01Z"/>
  <path class="cls-2" d="M66.54,226.97c0,1.43-.03,2.63-.09,3.6-.06.97-.28,1.78-.65,2.43-.37.65-.98,1.17-1.82,1.54-.84.37-2.04.65-3.6.84-.37.06-.65.23-.84.51-.19.28-.28.61-.28.98,0,.31.09.61.28.89.19.28.44.42.75.42,1.56,0,3.27-.11,5.14-.33,1.87-.22,3.8-.33,5.8-.33,1.87,0,3.72.11,5.56.33,1.84.22,3.38.33,4.63.33.37,0,.65-.14.84-.42.19-.28.28-.58.28-.89,0-.37-.09-.7-.28-.98-.19-.28-.47-.45-.84-.51-1.5-.19-2.66-.47-3.51-.84-.84-.37-1.45-.9-1.82-1.59-.37-.68-.59-1.56-.65-2.62-.06-1.06-.09-2.37-.09-3.93v-9.45h-8.79v10.01Z"/>
  <path class="cls-2" d="M139.18,235.38c-1.31-.19-2.31-.47-2.99-.84-.69-.37-1.18-.9-1.5-1.59-.31-.68-.5-1.56-.56-2.62-.06-1.06-.1-2.37-.1-3.93v-9.45h-8.79v10.01c0,1.43-.03,2.63-.09,3.6-.06.97-.28,1.78-.65,2.43s-.95,1.17-1.73,1.54c-.78.37-1.92.65-3.41.84-.37.06-.65.23-.84.51-.19.28-.28.61-.28.98,0,.31.09.61.28.89.19.28.44.42.75.42,1.43,0,3.07-.11,4.91-.33,1.84-.22,3.75-.33,5.75-.33,1.87,0,3.68.11,5.42.33,1.74.22,3.02.33,3.83.33.37,0,.65-.14.84-.42.19-.28.28-.58.28-.89,0-.37-.09-.7-.28-.98-.19-.28-.47-.45-.84-.51Z"/>
  <path class="cls-2" d="M133.76,204.71c0-2.49-.19-4.82-.56-6.97-.37-2.15-1.09-4-2.15-5.56-1.06-1.56-2.52-2.79-4.39-3.69-1.87-.9-4.3-1.36-7.29-1.36-2.06,0-3.96.34-5.7,1.03-1.75.69-3.3,1.51-4.68,2.48-1.37.97-2.49,1.96-3.36,2.99-.87,1.03-1.47,1.89-1.78,2.57-1.25-2.99-2.99-5.25-5.24-6.78-2.24-1.53-5.3-2.29-9.16-2.29-2.12,0-4,.33-5.65.98-1.65.65-3.05,1.42-4.21,2.29-1.15.87-2.09,1.75-2.81,2.62-.72.87-1.23,1.53-1.54,1.96-.25.25-.37.22-.37-.09l.19-4.58c.06-.68-.13-1.28-.56-1.78-.44-.5-.97-.75-1.59-.75-.13,0-.37.02-.75.05-.37.03-.62.08-.75.14-2.37.62-4.57,1.12-6.59,1.5-2.03.37-3.57.62-4.63.75-.37,0-.64.14-.8.42-.16.28-.2.58-.14.89.06.31.19.59.37.84.19.25.44.37.75.37,1.5.06,2.63.27,3.41.61.78.34,1.36.98,1.73,1.92.37.93.59,2.28.65,4.02.06,1.75.09,4.08.09,7.01v3.83h8.79v-4.48c0-1.5.23-3.01.7-4.53.47-1.53,1.18-2.91,2.15-4.16s2.21-2.26,3.74-3.04c1.53-.78,3.35-1.17,5.47-1.17,1.99,0,3.55.48,4.67,1.45,1.12.97,1.96,2.2,2.52,3.69s.92,3.15,1.08,4.95c.15,1.81.23,3.55.23,5.24v2.05h8.79v-4.76c0-1.37.33-2.79.98-4.25.65-1.46,1.54-2.82,2.66-4.07,1.12-1.25,2.44-2.27,3.97-3.09,1.53-.81,3.16-1.22,4.91-1.22,1.93,0,3.43.48,4.49,1.45,1.06.97,1.85,2.2,2.39,3.69.53,1.5.86,3.15.98,4.95.12,1.81.19,3.55.19,5.24v2.05h8.79v-5.42Z"/>
  <path class="cls-2" d="M186.72,232.3c-.22-.12-.42-.12-.61,0-.81.5-1.43.83-1.87.98-.44.16-1,.23-1.68.23-1.18,0-1.98-.43-2.38-1.31-.41-.87-.61-2.4-.61-4.58v-10.66h-9.02c.06.04.11.08.14.15.06.16.09.58.09,1.26v10.19c0,.5-.25,1-.75,1.5-1.25,1.06-2.66,1.87-4.25,2.43-1.59.56-3.1.84-4.53.84-2.18,0-3.74-.64-4.67-1.92-.94-1.28-1.4-2.85-1.4-4.72,0-2.68,1.23-4.88,3.69-6.59,2.32-1.62,5.83-2.66,10.51-3.14h-16.36c-.28.14-.57.27-.84.43-4.18,2.4-6.27,5.84-6.27,10.33,0,3.49.97,6.19,2.9,8.09,1.93,1.9,4.68,2.85,8.23,2.85,3.24,0,5.94-.47,8.09-1.4,2.15-.93,4.03-2.12,5.66-3.55.25-.25.44-.22.56.09.62,1.31,1.57,2.45,2.85,3.41,1.28.97,2.82,1.45,4.63,1.45,3.3,0,6.17-1.46,8.6-4.39.19-.19.25-.42.19-.7-.06-.28-.17-.53-.33-.75-.16-.22-.34-.39-.56-.51Z"/>
  <path class="cls-2" d="M170.26,209.67c.14,0,.25.04.33.09h9.02v-8.04c0-5.36-1.43-9.19-4.3-11.5-2.87-2.31-6.79-3.46-11.78-3.46-2.18,0-4.27.3-6.26.89-2,.59-3.74,1.39-5.24,2.38-1.5,1-2.68,2.2-3.55,3.6-.87,1.4-1.31,2.88-1.31,4.44,0,1.31.36,2.42,1.08,3.32.72.9,1.92,1.36,3.6,1.36,1.25,0,2.31-.41,3.18-1.22.87-.81,1.31-1.65,1.31-2.52,0-.69-.22-1.36-.65-2.01-.44-.65-.65-1.32-.65-2.01,0-1.43.72-2.6,2.15-3.51,1.43-.9,3.3-1.36,5.61-1.36,1.56,0,2.86.3,3.93.89,1.06.59,1.88,1.4,2.48,2.43.59,1.03,1.01,2.23,1.26,3.6.25,1.37.37,2.84.37,4.39v2.53c0,1.12-.03,1.84-.09,2.15-.06.31-.16.47-.28.47-7.48,0-13.26,1.07-17.39,3.17h16.36c.28-.03.56-.06.85-.09Z"/>
  <path class="cls-2" d="M235.66,240.85c-1.31-1.9-3.19-3.38-5.65-4.44-2.46-1.06-5.47-1.82-9.02-2.29-3.55-.47-7.57-.86-12.06-1.17-.56,0-1.29-.05-2.2-.14-.9-.09-1.81-.25-2.71-.47-.91-.22-1.67-.51-2.29-.89-.62-.37-.93-.84-.93-1.4,0-.75.39-1.32,1.17-1.73.78-.4,1.73-.7,2.85-.89,1.12-.19,2.27-.31,3.46-.37,1.18-.06,2.15-.09,2.9-.09,2.62,0,5.08-.37,7.39-1.12,2.31-.75,4.35-1.84,6.12-3.27,1.3-1.05,2.38-2.3,3.28-3.7-.49-.12-.96-.28-1.45-.43-.84-.27-1.72-.42-2.6-.5-.94-.09-1.92-.08-2.86.02-.56.06-1.11.16-1.66.26-.28.78-.58,1.51-.99,2.12-1.4,2.12-3.72,3.18-6.97,3.18-2.74,0-4.83-1.06-6.26-3.18-.62-.92-1.09-2.07-1.44-3.37h-9.52c.42,1.05.93,2.02,1.61,2.86,1.81,2.21,4.3,3.94,7.48,5.19.06,0,.09.03.09.09s-.03.09-.09.09c-1.31.06-2.63.23-3.97.51-1.34.28-2.56.73-3.65,1.36-1.09.62-1.96,1.44-2.62,2.43-.65,1-.98,2.21-.98,3.65,0,2,.59,3.44,1.78,4.35,1.18.9,2.49,1.6,3.93,2.1-1,.5-1.96,1.14-2.9,1.92-.93.78-1.78,1.67-2.52,2.66-.75,1-1.34,2.13-1.78,3.41-.44,1.28-.65,2.7-.65,4.25,0,2.68.55,4.99,1.64,6.92,1.09,1.93,2.65,3.52,4.68,4.77,2.02,1.25,4.44,2.16,7.25,2.76,2.81.59,5.89.89,9.26.89,4.05,0,7.62-.48,10.7-1.45,3.09-.97,5.69-2.29,7.81-3.97,2.12-1.68,3.71-3.68,4.77-5.98,1.06-2.31,1.59-4.8,1.59-7.48,0-3.05-.65-5.53-1.96-7.43ZM228.46,255.77c-.75,1.43-1.75,2.68-2.99,3.74-1.25,1.06-2.7,1.9-4.35,2.52-1.65.62-3.41.93-5.28.93-2.12,0-4.19-.28-6.22-.84-2.03-.56-3.82-1.42-5.38-2.57-1.56-1.15-2.82-2.59-3.79-4.3-.97-1.71-1.45-3.73-1.45-6.03,0-1.62.31-3.24.93-4.86.62-1.62,1.46-2.87,2.52-3.74,3.8.12,7.36.34,10.66.66,3.3.31,6.17.84,8.6,1.59,2.43.75,4.35,1.78,5.75,3.09,1.4,1.31,2.1,3.02,2.1,5.14,0,1.68-.37,3.24-1.12,4.68Z"/>
  <path class="cls-2" d="M241.97,189.85c-.47-.56-1.06-1.01-1.78-1.36-.72-.34-1.5-.58-2.34-.7-.84-.12-1.61-.19-2.29-.19-2,0-3.8.41-5.42,1.22-1.62.81-3.02,1.81-4.21,2.99-1.62-1.5-3.41-2.71-5.38-3.65-1.96-.93-4.6-1.4-7.9-1.4-2.93,0-5.61.41-8.04,1.22-2.43.81-4.5,1.95-6.22,3.41-1.72,1.46-3.04,3.24-3.97,5.33-.94,2.09-1.4,4.41-1.4,6.97,0,2.33.39,4.33,1.1,6.07h9.52c-.46-1.69-.71-3.66-.71-5.98,0-1.56.13-3.15.37-4.77.25-1.62.72-3.09,1.4-4.39.68-1.31,1.64-2.38,2.85-3.22,1.22-.84,2.82-1.26,4.82-1.26,1.62,0,2.94.33,3.97.98,1.03.65,1.85,1.59,2.48,2.8.62,1.22,1.04,2.66,1.26,4.35.22,1.68.33,3.55.33,5.61,0,2.28-.25,4.22-.69,5.89h4.83c1.84-.08,3.5-.9,5.05-1.88.46-1.54.72-3.21.72-5.04-.06-1.5-.3-2.98-.7-4.44-.41-1.46-1.04-2.85-1.92-4.16.5-.81,1.25-1.46,2.24-1.96,1-.5,2-.75,2.99-.75.94,0,1.53.25,1.78.75.25.5.47,1.03.65,1.59.19.56.47,1.09.84,1.59.37.5,1.15.75,2.34.75,1.62,0,2.71-.42,3.27-1.26.56-.84.84-1.79.84-2.85,0-.93-.23-1.68-.7-2.24Z"/>
  <path class="cls-2" d="M361.86,208.96c-1.65-.72-3.72-1.14-6.22-1.26-.19,0-.31-.09-.37-.28-.06-.19.03-.37.28-.56.75-.56,1.64-1.28,2.66-2.15,1.03-.87,2.09-1.79,3.18-2.76,1.09-.97,2.1-1.88,3.04-2.76.94-.87,1.68-1.56,2.24-2.06.87-.81,1.62-1.51,2.24-2.1.62-.59,1.28-1.11,1.96-1.54.68-.44,1.43-.78,2.24-1.03.81-.25,1.84-.44,3.09-.56.31-.06.55-.23.7-.51.15-.28.23-.58.23-.89,0-.37-.09-.7-.28-.98-.19-.28-.41-.42-.65-.42-1.43,0-2.9.11-4.39.33-1.5.22-2.96.33-4.39.33-.75,0-1.4-.03-1.96-.09-.56-.06-1.14-.14-1.73-.23s-1.25-.17-1.96-.23c-.72-.06-1.57-.09-2.57-.09-.31,0-.56.14-.75.42-.19.28-.28.61-.28.98,0,.31.09.62.28.93.19.31.44.47.75.47,1.99.13,3.07.55,3.22,1.26.16.72-.39,1.89-1.64,3.51-.56.69-1.22,1.5-1.96,2.43s-1.56,1.9-2.43,2.9c-.87,1-1.84,1.96-2.9,2.9s-2.18,1.78-3.36,2.52v-39.83c-.06-.37-.23-.73-.52-1.08-.28-.34-.86-.39-1.73-.14-2.31.69-4.81,1.15-7.53,1.4-2.71.25-5.19.44-7.43.56-.37,0-.64.16-.8.47-.16.31-.22.62-.19.93.03.31.12.62.28.93.16.31.39.47.7.47,1.99.19,3.55.44,4.67.75,1.12.31,1.96.9,2.53,1.78.56.87.9,2.1,1.03,3.69.12,1.59.19,3.73.19,6.4v26.73h23.21c-.81-.57-1.68-1.1-2.68-1.54Z"/>
  <path class="cls-2" d="M382.3,235.62c-.69-.06-1.35-.19-2.01-.37-.65-.19-1.2-.44-1.64-.75-1.5-1.18-2.73-2.48-3.69-3.88-.97-1.4-1.84-2.84-2.62-4.3-.78-1.46-1.56-2.88-2.34-4.25-.78-1.37-1.73-2.6-2.85-3.69-.44-.43-.96-.8-1.48-1.17h-23.21v10.01c0,1.43-.03,2.63-.09,3.6-.06.97-.31,1.78-.75,2.43-.44.65-1.14,1.17-2.1,1.54-.97.37-2.32.65-4.07.84-.37.06-.65.23-.84.51-.19.28-.28.61-.28.98,0,.31.09.61.28.89.19.28.44.42.75.42,1.99,0,3.96-.11,5.89-.33,1.93-.22,3.89-.33,5.89-.33,1.87,0,3.52.11,4.95.33,1.43.22,3.02.33,4.77.33.37,0,.65-.14.84-.42.19-.28.28-.58.28-.89s-.09-.62-.28-.93c-.19-.31-.47-.5-.84-.56-1.43-.25-2.52-.59-3.27-1.03-.75-.44-1.3-1.03-1.64-1.78-.34-.75-.55-1.71-.61-2.9-.06-1.18-.09-2.68-.09-4.49v-7.29c1.68,0,3.38.5,5.1,1.5,1.71,1,3.32,2.37,4.81,4.11,1.5,1.75,2.82,3.76,3.97,6.03,1.15,2.28,1.98,4.72,2.48,7.34.06.25.19.53.37.84s.5.47.93.47c1.06,0,2.2-.05,3.41-.14,1.22-.09,2.44-.14,3.69-.14,1.12,0,2.2.03,3.23.09,1.03.06,2.04.12,3.04.19.37,0,.65-.14.84-.42.19-.28.28-.58.28-.89,0-.37-.09-.72-.28-1.03-.19-.31-.47-.47-.84-.47Z"/>
  <line class="cls-3" x1="166.04" y1="217.05" x2="172.44" y2="217.05"/>
  <circle class="cls-2" cx="27.46" cy="213.67" r="1.48"/>
  <circle class="cls-2" cx="269.59" cy="195.84" r="1.48"/>
  <circle class="cls-2" cx="275.75" cy="189.84" r="1.48"/>
  <circle class="cls-2" cx="17.82" cy="213.67" r="1.48"/>
  <circle class="cls-2" cx="381.74" cy="213.56" r="1.48"/>
</svg>